<?xml version="1.0" encoding="UTF-8" standalone="no"?>
<!-- Created with Inkscape (http://www.inkscape.org/) -->

<svg
   xmlns:dc="http://purl.org/dc/elements/1.1/"
   xmlns:cc="http://creativecommons.org/ns#"
   xmlns:rdf="http://www.w3.org/1999/02/22-rdf-syntax-ns#"
   xmlns:svg="http://www.w3.org/2000/svg"
   xmlns="http://www.w3.org/2000/svg"
   version="1.0"
   width="439.37"
   height="439.37"
   viewBox="0 0 439.37 439.37"
   id="Layer_1"
   xml:space="preserve"><metadata
     id="metadata18"><rdf:RDF><cc:Work
         rdf:about=""><dc:format>image/svg+xml</dc:format><dc:type
           rdf:resource="http://purl.org/dc/dcmitype/StillImage" /><dc:title></dc:title></cc:Work></rdf:RDF></metadata><defs
     id="defs16" /><g
     id="Layer_1_1_"><path
       d="m 82.677,14.173 h 274.016 c 37.835,0 68.504,30.67 68.504,68.504 v 274.016 c 0,37.836 -30.669,68.504 -68.504,68.504 H 82.677 c -37.835,0 -68.504,-30.668 -68.504,-68.504 V 82.678 c 0,-37.835 30.669,-68.505 68.504,-68.505 z"
       id="path4"
       style="fill:none;stroke:#000000;stroke-width:0.1" /><polyline
       fill="none"
       stroke="#000000"
       stroke-width="0.1"
       points="14.173,219.686 78.713,219.686 78.713,219.686 81.791,220.145    84.599,221.483 86.892,223.582 88.477,226.258 89.206,229.281 89.022,232.388 87.941,235.302 86.054,237.775 86.054,237.775    82.658,242.227 80.71,247.473 80.38,253.062 81.695,258.503 84.542,263.324 88.673,267.1 93.728,269.508 99.266,270.336    104.802,269.508 109.857,267.1 113.985,263.324 116.835,258.503 118.15,253.062 117.82,247.473 115.872,242.227 112.477,237.775    112.477,237.775 110.591,235.302 109.508,232.388 109.324,229.281 110.055,226.258 111.638,223.582 113.931,221.483    116.741,220.145 119.816,219.686 119.816,219.686 219.685,219.686  "
       id="polyline6"
       style="fill:none;stroke:#000000;stroke-width:0.1" /><polyline
       fill="none"
       stroke="#000000"
       stroke-width="0.1"
       points="219.685,219.686 285.906,219.686 285.906,219.686    288.879,219.247 291.599,217.966 293.834,215.953 295.389,213.381 296.133,210.469 296.004,207.465 295.013,204.627    293.244,202.197 293.244,202.197 289.895,197.5 288.151,192.001 288.189,186.232 290,180.753 293.407,176.099 298.084,172.719    303.572,170.945 309.342,170.945 314.832,172.719 319.506,176.099 322.914,180.753 324.724,186.232 324.76,192.001 323.018,197.5    319.669,202.197 319.669,202.197 317.898,204.627 316.907,207.465 316.779,210.469 317.523,213.381 319.08,215.953    321.313,217.966 324.034,219.247 327.007,219.686 327.007,219.686 425.197,219.686  "
       id="polyline8"
       style="fill:none;stroke:#000000;stroke-width:0.1" /><polyline
       fill="none"
       stroke="#000000"
       stroke-width="0.1"
       points="219.685,14.173 219.685,97.593 219.685,97.593 219.091,101.366    217.365,104.774 214.674,107.485 211.281,109.239 207.514,109.864 203.734,109.3 200.314,107.601 197.579,104.933 197.579,104.933    192.66,100.13 186.501,97.072 179.701,96.057 172.919,97.182 166.81,100.337 161.968,105.219 158.862,111.353 157.792,118.144    158.862,124.937 161.968,131.07 166.81,135.95 172.919,139.107 179.701,140.232 186.501,139.216 192.66,136.159 197.579,131.355    197.579,131.355 200.314,128.688 203.734,126.989 207.514,126.425 211.281,127.05 214.674,128.803 217.365,131.514    219.091,134.922 219.685,138.696 219.685,138.696 219.685,219.686  "
       id="polyline10"
       style="fill:none;stroke:#000000;stroke-width:0.1" /><polyline
       fill="none"
       stroke="#000000"
       stroke-width="0.1"
       points="219.685,219.686 219.685,318.352 219.685,318.352    219.142,321.86 217.565,325.04 215.099,327.597 211.975,329.286 208.488,329.951 204.963,329.533 201.729,328.067 199.089,325.69    199.089,325.69 194.339,321.417 188.519,318.781 182.172,318.025 175.896,319.227 170.272,322.266 165.836,326.865    162.993,332.589 162.017,338.902 162.993,345.221 165.836,350.944 170.272,355.541 175.896,358.581 182.172,359.779    188.519,359.026 194.339,356.389 199.089,352.115 199.089,352.115 201.729,349.74 204.963,348.277 208.488,347.856    211.975,348.523 215.099,350.213 217.565,352.766 219.142,355.945 219.685,359.455 219.685,359.455 219.685,425.197  "
       id="polyline12"
       style="fill:none;stroke:#000000;stroke-width:0.1" /></g></svg>